<?xml version="1.0" encoding="UTF-8" standalone="no"?>
<svg
   xmlns:dc="http://purl.org/dc/elements/1.1/"
   xmlns:cc="http://creativecommons.org/ns#"
   xmlns:rdf="http://www.w3.org/1999/02/22-rdf-syntax-ns#"
   xmlns:svg="http://www.w3.org/2000/svg"
   xmlns="http://www.w3.org/2000/svg"
   xmlns:sodipodi="http://sodipodi.sourceforge.net/DTD/sodipodi-0.dtd"
   xmlns:inkscape="http://www.inkscape.org/namespaces/inkscape"
   viewBox="0 0 69.649994 69.621133"
   version="1.1"
   id="svg4644"
   sodipodi:docname="icon-farsound-O-orange.svg"
   width="69.649994"
   height="69.621132"
   inkscape:version="0.92.4 (5da689c313, 2019-01-14)">
  <metadata
     id="metadata4648">
    <rdf:RDF>
      <cc:Work
         rdf:about="">
        <dc:format>image/svg+xml</dc:format>
        <dc:type
           rdf:resource="http://purl.org/dc/dcmitype/StillImage" />
        <dc:title>Orange Farsound logo</dc:title>
      </cc:Work>
    </rdf:RDF>
  </metadata>
  <sodipodi:namedview
     pagecolor="#ffffff"
     bordercolor="#666666"
     borderopacity="1"
     objecttolerance="10"
     gridtolerance="10"
     guidetolerance="10"
     inkscape:pageopacity="0"
     inkscape:pageshadow="2"
     inkscape:window-width="1920"
     inkscape:window-height="1017"
     id="namedview4646"
     showgrid="false"
     inkscape:zoom="2.6934579"
     inkscape:cx="16.51"
     inkscape:cy="34.801133"
     inkscape:window-x="-8"
     inkscape:window-y="-8"
     inkscape:window-maximized="1"
     inkscape:current-layer="svg4644" />
  <defs
     id="defs4586">
    <style
       id="style4584">.cls-1{fill:#f78e1e;}</style>
  </defs>
  <title
     id="title4588">Orange Farsound logo</title>
  <g
     id="Layer_2"
     data-name="Layer 2"
     transform="translate(-250.99)">
    <g
       id="Layer_1-2"
       data-name="Layer 1">
      <path
         class="cls-1"
         d="M 271.34,23 A 26.67,26.67 0 0 1 268.5,4.6 34.86,34.86 0 0 0 264.38,7.37 c -0.92,9.76 5.39,17.41 5.56,17.62 a 18.72,18.72 0 0 1 1.4,-1.99 z"
         id="path4590"
         inkscape:connector-curvature="0"
         style="fill:#f78e1e" />
      <path
         class="cls-1"
         d="m 274,2 a 34.63,34.63 0 0 0 -4.49,2 25.68,25.68 0 0 0 2.37,18.35 18.78,18.78 0 0 1 1.73,-1.7 A 27.54,27.54 0 0 1 274,2 Z"
         id="path4592"
         inkscape:connector-curvature="0"
         style="fill:#f78e1e" />
      <path
         class="cls-1"
         d="m 279.91,0.5 a 34.58,34.58 0 0 0 -4.85,1.19 26.49,26.49 0 0 0 -0.84,18.47 v 0 a 18.69,18.69 0 0 1 2,-1.38 C 274.68,7.54 279.82,0.62 279.91,0.5 Z"
         id="path4594"
         inkscape:connector-curvature="0"
         style="fill:#f78e1e" />
      <path
         class="cls-1"
         d="m 285.7,0 a 35.09,35.09 0 0 0 -4.7,0.33 26,26 0 0 0 -4.05,18 18.58,18.58 0 0 1 2,-0.92 A 26.57,26.57 0 0 1 285.7,0 Z"
         id="path4596"
         inkscape:connector-curvature="0"
         style="fill:#f78e1e" />
      <path
         class="cls-1"
         d="m 267.36,37.7 a 18.71,18.71 0 0 1 -0.24,-2.82 C 257.66,31.55 253.26,22.6 253.22,22.51 a 34.54,34.54 0 0 0 -1.53,5.27 c 5.82,8.22 15.31,9.87 15.67,9.92 z"
         id="path4598"
         inkscape:connector-curvature="0"
         style="fill:#f78e1e" />
      <path
         class="cls-1"
         d="m 268.12,40.84 a 18.53,18.53 0 0 1 -0.7,-2.73 26.6,26.6 0 0 1 -15.84,-9.75 35,35 0 0 0 -0.59,5.53 c 8.2,7.33 16.78,6.97 17.13,6.95 z"
         id="path4600"
         inkscape:connector-curvature="0"
         style="fill:#f78e1e" />
      <path
         class="cls-1"
         d="m 267.47,31.19 a 18.47,18.47 0 0 1 0.77,-2.7 26.15,26.15 0 0 1 -8.87,-16.34 34.93,34.93 0 0 0 -3.25,4.44 26.49,26.49 0 0 0 11.35,14.6 z"
         id="path4602"
         inkscape:connector-curvature="0"
         style="fill:#f78e1e" />
      <path
         class="cls-1"
         d="m 282.08,16.51 a 27.16,27.16 0 0 1 9.68,-16 A 34.9,34.9 0 0 0 287.27,0 c -7.55,8.43 -7.12,16.84 -7.12,17 a 18.53,18.53 0 0 1 1.93,-0.5 z"
         id="path4604"
         inkscape:connector-curvature="0"
         style="fill:#f78e1e" />
      <path
         class="cls-1"
         d="m 267.13,34.43 a 18.75,18.75 0 0 1 0.28,-2.82 c -8.66,-5 -11.54,-14.47 -11.57,-14.56 a 34.67,34.67 0 0 0 -2.43,5 26.3,26.3 0 0 0 13.72,12.38 z"
         id="path4606"
         inkscape:connector-curvature="0"
         style="fill:#f78e1e" />
      <path
         class="cls-1"
         d="m 268.36,28.08 v 0 a 18.59,18.59 0 0 1 1.11,-2.39 v 0 a 26.15,26.15 0 0 1 -6,-17.65 35,35 0 0 0 -3.76,3.65 26,26 0 0 0 8.65,16.39 z"
         id="path4608"
         inkscape:connector-curvature="0"
         style="fill:#f78e1e" />
      <path
         class="cls-1"
         d="m 306.55,16.9 a 26.7,26.7 0 0 1 9.25,0.26 34.9,34.9 0 0 0 -2.23,-3.34 23.69,23.69 0 0 0 -8.54,0.84 c -6.37,1.9 -9,4.53 -9,4.53 v 0 c 0.42,0.28 0.83,0.58 1.22,0.88 a 29.82,29.82 0 0 1 9.3,-3.17 z"
         id="path4610"
         inkscape:connector-curvature="0"
         style="fill:#f78e1e" />
      <path
         class="cls-1"
         d="m 311.9,25 a 23.51,23.51 0 0 1 8.1,3.24 34.59,34.59 0 0 0 -0.89,-3.6 26.64,26.64 0 0 0 -9.38,-2.27 27.24,27.24 0 0 0 -9,1.24 c 0.27,0.36 0.53,0.72 0.78,1.1 A 28,28 0 0 1 311.9,25 Z"
         id="path4612"
         inkscape:connector-curvature="0"
         style="fill:#f78e1e" />
      <path
         class="cls-1"
         d="m 299.63,22.31 v 0 a 27.76,27.76 0 0 1 9.7,-1.53 27.36,27.36 0 0 1 9,1.82 34.61,34.61 0 0 0 -1.54,-3.6 24,24 0 0 0 -9.64,-0.52 24.84,24.84 0 0 0 -8.6,2.74 v 0 q 0.55,0.5 1.08,1.09 z"
         id="path4614"
         inkscape:connector-curvature="0"
         style="fill:#f78e1e" />
      <path
         class="cls-1"
         d="M 312.13,27.05 A 25.35,25.35 0 0 0 302.52,26.58 18.66,18.66 0 1 1 268.26,41.23 25.61,25.61 0 0 1 251,34.4 c 0,0.14 0,0.28 0,0.42 a 34.82,34.82 0 1 0 69.4,-4.1 25.14,25.14 0 0 0 -8.27,-3.67 z"
         id="path4616"
         inkscape:connector-curvature="0"
         style="fill:#f78e1e" />
      <path
         class="cls-1"
         d="m 289.85,16.6 c 0.58,0.13 1.16,0.28 1.72,0.47 v 0 A 26.64,26.64 0 0 1 307.9,7.92 35,35 0 0 0 304.5,5.46 25.05,25.05 0 0 0 289.85,16.6 Z"
         id="path4618"
         inkscape:connector-curvature="0"
         style="fill:#f78e1e" />
      <path
         class="cls-1"
         d="M 288.59,16.35 C 293.48,7.55 303,4.66 303.1,4.61 a 34.66,34.66 0 0 0 -4,-2 c -9.18,4 -12.56,13.5 -12.56,13.5 v 0 a 10.66,10.66 0 0 1 2,0.21 z"
         id="path4620"
         inkscape:connector-curvature="0"
         style="fill:#f78e1e" />
      <path
         class="cls-1"
         d="m 285.37,16.14 c 3.29,-9.6 12.22,-14.06 12.26,-14.08 a 34.56,34.56 0 0 0 -4.32,-1.24 26.4,26.4 0 0 0 -10,15.49 v 0 a 14,14 0 0 1 2.07,-0.18 z"
         id="path4622"
         inkscape:connector-curvature="0"
         style="fill:#f78e1e" />
      <path
         class="cls-1"
         d="m 294.57,18.33 c 2.1,-2 5.22,-3.62 9.26,-5 a 25.37,25.37 0 0 1 8.42,-1.14 35,35 0 0 0 -2.73,-2.85 25.35,25.35 0 0 0 -16.37,8.31 v 0 c 0.49,0.21 1,0.44 1.43,0.69 z"
         id="path4624"
         inkscape:connector-curvature="0"
         style="fill:#f78e1e" />
      <path
         class="cls-1"
         d="M 304.46,34.78 A 18.67,18.67 0 1 1 291.19,16.93 22.33,22.33 0 0 0 274.3,15.3 c -11.21,3.56 -16.51,15.86 -11.83,27.48 4.68,11.62 17.53,18.15 28.78,14.59 9.64,-3.06 14.9,-12.59 13.21,-22.59 z"
         id="path4626"
         inkscape:connector-curvature="0"
         style="fill:#f78e1e" />
    </g>
  </g>
</svg>
